<mxfile host="app.diagrams.net" modified="2020-11-09T14:42:49.483Z" agent="5.0 (Macintosh; Intel Mac OS X 10_14_6) AppleWebKit/537.36 (KHTML, like Gecko) Chrome/86.0.4240.183 Safari/537.36" etag="0fp5BG2lcdTk-xARsRn8" version="13.9.2" type="github">
  <diagram id="GRMSIZcS6dBet5IUKyX5" name="Page-1">
    <mxGraphModel dx="786" dy="439" grid="1" gridSize="10" guides="1" tooltips="1" connect="1" arrows="1" fold="1" page="1" pageScale="1" pageWidth="850" pageHeight="1100" math="0" shadow="0">
      <root>
        <mxCell id="0" />
        <mxCell id="1" parent="0" />
        <mxCell id="j6bsub0oAUbZr3Ido0uE-6" value="" style="group" vertex="1" connectable="0" parent="1">
          <mxGeometry x="20" y="30" width="141" height="330" as="geometry" />
        </mxCell>
        <mxCell id="j6bsub0oAUbZr3Ido0uE-3" value="" style="rounded=0;whiteSpace=wrap;html=1;" vertex="1" parent="j6bsub0oAUbZr3Ido0uE-6">
          <mxGeometry width="140" height="300" as="geometry" />
        </mxCell>
        <mxCell id="j6bsub0oAUbZr3Ido0uE-1" value="App Server" style="rounded=0;whiteSpace=wrap;html=1;" vertex="1" parent="j6bsub0oAUbZr3Ido0uE-6">
          <mxGeometry x="10" y="10" width="120" height="60" as="geometry" />
        </mxCell>
        <mxCell id="j6bsub0oAUbZr3Ido0uE-2" value="users" style="shape=cylinder3;whiteSpace=wrap;html=1;boundedLbl=1;backgroundOutline=1;size=15;" vertex="1" parent="j6bsub0oAUbZr3Ido0uE-6">
          <mxGeometry x="40" y="200" width="60" height="80" as="geometry" />
        </mxCell>
        <mxCell id="j6bsub0oAUbZr3Ido0uE-4" value="User Service" style="text;html=1;strokeColor=none;fillColor=none;align=center;verticalAlign=middle;whiteSpace=wrap;rounded=0;" vertex="1" parent="j6bsub0oAUbZr3Ido0uE-6">
          <mxGeometry x="1" y="310" width="140" height="20" as="geometry" />
        </mxCell>
        <mxCell id="j6bsub0oAUbZr3Ido0uE-7" value="" style="group" vertex="1" connectable="0" parent="1">
          <mxGeometry x="190" y="30" width="141" height="330" as="geometry" />
        </mxCell>
        <mxCell id="j6bsub0oAUbZr3Ido0uE-8" value="" style="rounded=0;whiteSpace=wrap;html=1;" vertex="1" parent="j6bsub0oAUbZr3Ido0uE-7">
          <mxGeometry width="140" height="300" as="geometry" />
        </mxCell>
        <mxCell id="j6bsub0oAUbZr3Ido0uE-9" value="App Server" style="rounded=0;whiteSpace=wrap;html=1;" vertex="1" parent="j6bsub0oAUbZr3Ido0uE-7">
          <mxGeometry x="10" y="10" width="120" height="60" as="geometry" />
        </mxCell>
        <mxCell id="j6bsub0oAUbZr3Ido0uE-10" value="tweets" style="shape=cylinder3;whiteSpace=wrap;html=1;boundedLbl=1;backgroundOutline=1;size=15;" vertex="1" parent="j6bsub0oAUbZr3Ido0uE-7">
          <mxGeometry x="40" y="200" width="60" height="80" as="geometry" />
        </mxCell>
        <mxCell id="j6bsub0oAUbZr3Ido0uE-11" value="Create Tweet Service" style="text;html=1;strokeColor=none;fillColor=none;align=center;verticalAlign=middle;whiteSpace=wrap;rounded=0;" vertex="1" parent="j6bsub0oAUbZr3Ido0uE-7">
          <mxGeometry x="1" y="310" width="140" height="20" as="geometry" />
        </mxCell>
        <mxCell id="j6bsub0oAUbZr3Ido0uE-12" value="" style="group" vertex="1" connectable="0" parent="1">
          <mxGeometry x="360" y="30" width="141" height="330" as="geometry" />
        </mxCell>
        <mxCell id="j6bsub0oAUbZr3Ido0uE-13" value="" style="rounded=0;whiteSpace=wrap;html=1;" vertex="1" parent="j6bsub0oAUbZr3Ido0uE-12">
          <mxGeometry width="140" height="300" as="geometry" />
        </mxCell>
        <mxCell id="j6bsub0oAUbZr3Ido0uE-14" value="App Server" style="rounded=0;whiteSpace=wrap;html=1;" vertex="1" parent="j6bsub0oAUbZr3Ido0uE-12">
          <mxGeometry x="10" y="10" width="120" height="60" as="geometry" />
        </mxCell>
        <mxCell id="j6bsub0oAUbZr3Ido0uE-15" value="user-followers" style="shape=cylinder3;whiteSpace=wrap;html=1;boundedLbl=1;backgroundOutline=1;size=15;" vertex="1" parent="j6bsub0oAUbZr3Ido0uE-12">
          <mxGeometry x="40" y="200" width="60" height="80" as="geometry" />
        </mxCell>
        <mxCell id="j6bsub0oAUbZr3Ido0uE-16" value="Follow User Service" style="text;html=1;strokeColor=none;fillColor=none;align=center;verticalAlign=middle;whiteSpace=wrap;rounded=0;" vertex="1" parent="j6bsub0oAUbZr3Ido0uE-12">
          <mxGeometry x="1" y="310" width="140" height="20" as="geometry" />
        </mxCell>
        <mxCell id="j6bsub0oAUbZr3Ido0uE-17" value="" style="group" vertex="1" connectable="0" parent="1">
          <mxGeometry x="520" y="30" width="141" height="330" as="geometry" />
        </mxCell>
        <mxCell id="j6bsub0oAUbZr3Ido0uE-18" value="" style="rounded=0;whiteSpace=wrap;html=1;" vertex="1" parent="j6bsub0oAUbZr3Ido0uE-17">
          <mxGeometry width="140" height="300" as="geometry" />
        </mxCell>
        <mxCell id="j6bsub0oAUbZr3Ido0uE-19" value="App Server" style="rounded=0;whiteSpace=wrap;html=1;" vertex="1" parent="j6bsub0oAUbZr3Ido0uE-17">
          <mxGeometry x="10" y="10" width="120" height="60" as="geometry" />
        </mxCell>
        <mxCell id="j6bsub0oAUbZr3Ido0uE-20" value="favorite-tweets" style="shape=cylinder3;whiteSpace=wrap;html=1;boundedLbl=1;backgroundOutline=1;size=15;" vertex="1" parent="j6bsub0oAUbZr3Ido0uE-17">
          <mxGeometry x="40" y="200" width="60" height="80" as="geometry" />
        </mxCell>
        <mxCell id="j6bsub0oAUbZr3Ido0uE-21" value="Favorite Tweet Service" style="text;html=1;strokeColor=none;fillColor=none;align=center;verticalAlign=middle;whiteSpace=wrap;rounded=0;" vertex="1" parent="j6bsub0oAUbZr3Ido0uE-17">
          <mxGeometry x="1" y="310" width="140" height="20" as="geometry" />
        </mxCell>
        <mxCell id="j6bsub0oAUbZr3Ido0uE-22" value="" style="group" vertex="1" connectable="0" parent="1">
          <mxGeometry x="670" y="30" width="141" height="330" as="geometry" />
        </mxCell>
        <mxCell id="j6bsub0oAUbZr3Ido0uE-23" value="" style="rounded=0;whiteSpace=wrap;html=1;" vertex="1" parent="j6bsub0oAUbZr3Ido0uE-22">
          <mxGeometry width="140" height="300" as="geometry" />
        </mxCell>
        <mxCell id="j6bsub0oAUbZr3Ido0uE-24" value="App Server" style="rounded=0;whiteSpace=wrap;html=1;" vertex="1" parent="j6bsub0oAUbZr3Ido0uE-22">
          <mxGeometry x="10" y="10" width="120" height="60" as="geometry" />
        </mxCell>
        <mxCell id="j6bsub0oAUbZr3Ido0uE-26" value="Timeline Service" style="text;html=1;strokeColor=none;fillColor=none;align=center;verticalAlign=middle;whiteSpace=wrap;rounded=0;" vertex="1" parent="j6bsub0oAUbZr3Ido0uE-22">
          <mxGeometry x="1" y="310" width="140" height="20" as="geometry" />
        </mxCell>
      </root>
    </mxGraphModel>
  </diagram>
</mxfile>
